<svg width="15" height="19" viewBox="0 0 15 19" fill="none" xmlns="http://www.w3.org/2000/svg">
<path d="M13.5577 2.30769H10.3846V1.73077C10.3846 0.77643 9.60818 0 8.65385 0H6.34615C5.39181 0 4.61538 0.77643 4.61538 1.73077V2.30769H1.44231C0.647019 2.30769 0 2.95471 0 3.75V5.76923C0 6.08784 0.258317 6.34615 0.576923 6.34615H0.892212L1.39064 16.8131C1.43466 17.7375 2.19404 18.4615 3.11942 18.4615H11.8806C12.806 18.4615 13.5654 17.7375 13.6094 16.8131L14.1078 6.34615H14.4231C14.7417 6.34615 15 6.08784 15 5.76923V3.75C15 2.95471 14.353 2.30769 13.5577 2.30769ZM5.76923 1.73077C5.76923 1.41267 6.02805 1.15385 6.34615 1.15385H8.65385C8.97195 1.15385 9.23077 1.41267 9.23077 1.73077V2.30769H5.76923V1.73077ZM1.15385 3.75C1.15385 3.59095 1.28326 3.46154 1.44231 3.46154H13.5577C13.7167 3.46154 13.8462 3.59095 13.8462 3.75V5.19231C13.6684 5.19231 1.89061 5.19231 1.15385 5.19231V3.75ZM12.4568 16.7582C12.4421 17.0663 12.189 17.3077 11.8806 17.3077H3.11942C2.81095 17.3077 2.55782 17.0663 2.54318 16.7582L2.04736 6.34615H12.9526L12.4568 16.7582Z" fill="white"/>
<path d="M7.50002 16.1538C7.81862 16.1538 8.07694 15.8955 8.07694 15.5769V8.07692C8.07694 7.75832 7.81862 7.5 7.50002 7.5C7.18141 7.5 6.9231 7.75832 6.9231 8.07692V15.5769C6.9231 15.8955 7.18138 16.1538 7.50002 16.1538Z" fill="white"/>
<path d="M10.3845 16.1538C10.7031 16.1538 10.9615 15.8955 10.9615 15.5769V8.07692C10.9615 7.75832 10.7031 7.5 10.3845 7.5C10.0659 7.5 9.80762 7.75832 9.80762 8.07692V15.5769C9.80762 15.8955 10.0659 16.1538 10.3845 16.1538Z" fill="white"/>
<path d="M4.6155 16.1538C4.9341 16.1538 5.19242 15.8955 5.19242 15.5769V8.07692C5.19242 7.75832 4.9341 7.5 4.6155 7.5C4.29689 7.5 4.03857 7.75832 4.03857 8.07692V15.5769C4.03857 15.8955 4.29686 16.1538 4.6155 16.1538Z" fill="white"/>
</svg>
