<svg width="99" height="79" viewBox="0 0 99 79" fill="none" xmlns="http://www.w3.org/2000/svg">
<rect width="99" height="79" rx="16" fill="#2FBEEB"/>
<path d="M69.2093 18H30.4583C26.8988 18 24 20.8988 24 24.4588V52.8759C24 56.4359 26.8988 59.3347 30.4583 59.3347H69.2093C72.7693 59.3347 75.6681 56.4359 75.6681 52.8759V24.4588C75.6681 20.8988 72.7693 18 69.2093 18ZM30.4583 23.167H69.2093C69.9226 23.167 70.5011 23.7455 70.5011 24.4588V42.7983L62.3404 33.2757C61.4747 32.2606 60.2216 31.718 58.8759 31.6872C57.5376 31.6948 56.2822 32.2889 55.4246 33.3173L45.8296 44.8338L42.7038 41.7156C40.937 39.9488 38.0614 39.9488 36.297 41.7156L29.167 48.8432V24.4588C29.167 23.7455 29.7455 23.167 30.4583 23.167Z" fill="white"/>
</svg>
