<svg width="33" height="39" viewBox="0 0 33 39" fill="none" xmlns="http://www.w3.org/2000/svg">
<path d="M29.2969 4.875H22.5938V3.65625C22.5938 1.64021 20.9535 0 18.9375 0H14.0625C12.0465 0 10.4062 1.64021 10.4062 3.65625V4.875H3.70312C2.02308 4.875 0.65625 6.24183 0.65625 7.92188V12.1875C0.65625 12.8606 1.20195 13.4062 1.875 13.4062H2.54105L3.59397 35.5177C3.68698 37.4704 5.29116 39 7.24603 39H25.754C27.7089 39 29.3131 37.4704 29.406 35.5177L30.459 13.4062H31.125C31.7981 13.4062 32.3438 12.8606 32.3438 12.1875V7.92188C32.3438 6.24183 30.9769 4.875 29.2969 4.875ZM12.8438 3.65625C12.8438 2.98426 13.3905 2.4375 14.0625 2.4375H18.9375C19.6095 2.4375 20.1562 2.98426 20.1562 3.65625V4.875H12.8438V3.65625ZM3.09375 7.92188C3.09375 7.58588 3.36713 7.3125 3.70312 7.3125H29.2969C29.6329 7.3125 29.9062 7.58588 29.9062 7.92188V10.9688C29.5306 10.9688 4.65017 10.9688 3.09375 10.9688V7.92188ZM26.9713 35.4017C26.9403 36.0526 26.4055 36.5625 25.754 36.5625H7.24603C6.59438 36.5625 6.05965 36.0526 6.02873 35.4017L4.98129 13.4062H28.0187L26.9713 35.4017Z" fill="#2FBEEB"/>
</svg>
